<svg xmlns="http://www.w3.org/2000/svg"
 xmlns:xlink="http://www.w3.org/1999/xlink"
 width="50px" height="50px"  viewBox="0 0 50 50">
<path fill-rule="evenodd"  fill="#9e9e9e"
 d="M19.355652,17.003906 C19.355652,17.003906 22.00476,17.003906 22.00476,17.003906 C22.00476,17.003906 22.00476,28.059082 22.00476,28.059082 C22.00476,28.838501 21.879517,29.5354 21.631042,30.14746 C21.382568,30.761719 21.035645,31.277466 20.591309,31.696777 C20.146057,32.114136 19.61847,32.43506 19.008667,32.653564 C18.399048,32.8739 17.73291,32.98413 17.011414,32.98413 C16.282227,32.98413 15.61145,32.88965 14.99884,32.702637 C14.385254,32.515747 13.857788,32.226196 13.416199,31.836426 C12.974731,31.4469 12.628723,30.956665 12.380249,30.364136 C12.131775,29.773438 12.007507,29.07666 12.007507,28.275513 C12.007507,28.275513 14.656738,28.275513 14.656738,28.275513 C14.656738,28.730347 14.71405,29.118042 14.830566,29.438843 C14.9453125,29.759766 15.1067505,30.019653 15.314209,30.218506 C15.52063,30.417236 15.76709,30.562866 16.05481,30.657349 C16.342407,30.749878 16.660706,30.797241 17.011414,30.797241 C17.354492,30.797241 17.66986,30.73816 17.957458,30.61792 C18.244202,30.499878 18.4917,30.324707 18.699036,30.09436 C18.905518,29.862183 19.066101,29.578735 19.182678,29.23816 C19.297424,28.899536 19.355652,28.50586 19.355652,28.059082 C19.355652,28.059082 19.355652,17.003906 19.355652,17.003906 ZM34.21161,28.766968 C34.21161,28.452393 34.16339,28.17273 34.068115,27.928223 C33.97278,27.681519 33.797363,27.456177 33.54474,27.250488 C33.2901,27.042725 32.941162,26.846558 32.49597,26.65625 C32.051697,26.467896 31.480225,26.271729 30.781311,26.064087 C30.016296,25.844727 29.310425,25.591309 28.663696,25.306763 C28.017029,25.02124 27.459534,24.691162 26.993286,24.312622 C26.526001,23.935913 26.160034,23.500854 25.895386,23.009644 C25.630615,22.51831 25.49823,21.957153 25.49823,21.322266 C25.49823,20.697021 25.63562,20.12024 25.912415,19.592163 C26.187134,19.065918 26.575195,18.60962 27.0755,18.22522 C27.575867,17.84082 28.174438,17.541748 28.87323,17.328125 C29.572144,17.114502 30.344238,17.00769 31.189453,17.00769 C32.093933,17.00769 32.906006,17.134888 33.626892,17.38733 C34.3479,17.640747 34.956543,17.984497 35.451843,18.417358 C35.949097,18.852417 36.329224,19.356201 36.593872,19.929077 C36.85858,20.502808 36.990906,21.112549 36.990906,21.760986 C36.990906,21.760986 34.21161,21.760986 34.21161,21.760986 C34.21161,21.383423 34.15033,21.036743 34.03003,20.71936 C33.907715,20.402832 33.72223,20.128174 33.472534,19.896973 C33.2229,19.665894 32.906006,19.485352 32.523987,19.3573 C32.141968,19.229126 31.68982,19.16504 31.16742,19.16504 C30.675049,19.16504 30.247925,19.21936 29.88794,19.326172 C29.528015,19.432983 29.22815,19.58252 28.988647,19.77478 C28.749878,19.966919 28.573547,20.194214 28.459167,20.458252 C28.345886,20.721191 28.288696,21.005737 28.288696,21.312622 C28.288696,21.889282 28.569397,22.368896 29.132996,22.753296 C29.69458,23.13794 30.553772,23.495117 31.707886,23.821411 C32.612244,24.077515 33.395325,24.363037 34.05713,24.67566 C34.718872,24.990234 35.26837,25.343628 35.706482,25.738892 C36.143677,26.133911 36.468506,26.578491 36.68213,27.07373 C36.89563,27.568848 37.001892,28.12622 37.001892,28.745483 C37.001892,29.400024 36.867615,29.988281 36.598877,30.512695 C36.331177,31.035034 35.949097,31.481445 35.451843,31.846558 C34.956543,32.213623 34.35492,32.495117 33.648987,32.691162 C32.943115,32.88733 32.156006,32.984375 31.288757,32.984375 C30.516602,32.984375 29.755615,32.8833 29.005676,32.679688 C28.255676,32.47766 27.582825,32.1709 26.987183,31.761108 C26.391724,31.353394 25.912415,30.842773 25.547424,30.229004 C25.18451,29.617432 25.001892,28.898926 25.001892,28.0719 C25.001892,28.0719 27.79242,28.0719 27.79242,28.0719 C27.79242,28.56311 27.88263,28.984375 28.062134,29.337769 C28.242615,29.689209 28.489197,29.978638 28.802063,30.202026 C29.113892,30.427124 29.483948,30.59021 29.910034,30.693237 C30.336182,30.797974 30.796387,30.848633 31.288757,30.848633 C32.259277,30.848633 32.989197,30.658203 33.478577,30.277588 C33.966858,29.897095 34.21161,29.39209 34.21161,28.766968 ZM25.5,49.0 C12.541931,49.0 1.999939,38.458008 1.999939,25.5 C1.999939,12.541992 12.541931,1.9998779 25.5,1.9998779 C38.457947,1.9998779 48.99994,12.541992 48.99994,25.5 C48.99994,38.458008 38.457947,49.0 25.5,49.0 ZM25.5,2.999878 C13.093689,2.999878 2.999939,13.09375 2.999939,25.5 C2.999939,37.906128 13.093689,48.0 25.5,48.0 C37.906128,48.0 48.0,37.906128 48.0,25.5 C48.0,13.09375 37.906128,2.999878 25.5,2.999878 Z"/>
</svg>