<svg xmlns="http://www.w3.org/2000/svg"
 xmlns:xlink="http://www.w3.org/1999/xlink"
 width="50px" height="50px"  viewBox="0 0 50 50">
<path fill-rule="evenodd"  fill="#9e9e9e"
 d="M16.499023,18.990173 C16.499023,18.990173 15.499023,18.990173 15.499023,18.990173 C14.120117,18.990173 12.998962,17.86914 12.998962,16.490295 C12.998962,16.490295 12.998962,15.490295 12.998962,15.490295 C12.998962,14.111206 14.120117,12.990295 15.499023,12.990295 C15.499023,12.990295 16.499023,12.990295 16.499023,12.990295 C17.877869,12.990295 18.998962,14.111206 18.998962,15.490295 C18.998962,15.490295 18.998962,16.490295 18.998962,16.490295 C18.998962,17.86914 17.877869,18.990173 16.499023,18.990173 ZM15.499023,13.990295 C14.671753,13.990295 13.999023,14.662964 13.999023,15.490295 C13.999023,15.490295 13.999023,16.490295 13.999023,16.490295 C13.999023,17.317322 14.671753,17.990173 15.499023,17.990173 C15.499023,17.990173 16.499023,17.990173 16.499023,17.990173 C17.32611,17.990173 17.999023,17.317322 17.999023,16.490295 C17.999023,16.490295 17.999023,15.490295 17.999023,15.490295 C17.999023,14.662964 17.32611,13.990295 16.499023,13.990295 C16.499023,13.990295 15.499023,13.990295 15.499023,13.990295 ZM38.00879,16.990173 C38.00879,16.990173 22.00879,16.990173 22.00879,16.990173 C22.00879,16.990173 22.00879,14.990295 22.00879,14.990295 C22.00879,14.990295 38.00879,14.990295 38.00879,14.990295 C38.00879,14.990295 38.00879,16.990173 38.00879,16.990173 ZM16.499023,28.995972 C16.499023,28.995972 15.499023,28.995972 15.499023,28.995972 C14.120117,28.995972 12.998962,27.874939 12.998962,26.496094 C12.998962,26.496094 12.998962,25.496094 12.998962,25.496094 C12.998962,24.117126 14.120117,22.996094 15.499023,22.996094 C15.499023,22.996094 16.499023,22.996094 16.499023,22.996094 C17.877869,22.996094 18.998962,24.117126 18.998962,25.496094 C18.998962,25.496094 18.998962,26.496094 18.998962,26.496094 C18.998962,27.874939 17.877869,28.995972 16.499023,28.995972 ZM15.499023,23.996094 C14.671753,23.996094 13.999023,24.668945 13.999023,25.496094 C13.999023,25.496094 13.999023,26.496094 13.999023,26.496094 C13.999023,27.323242 14.671753,27.995972 15.499023,27.995972 C15.499023,27.995972 16.499023,27.995972 16.499023,27.995972 C17.32611,27.995972 17.999023,27.323242 17.999023,26.496094 C17.999023,26.496094 17.999023,25.496094 17.999023,25.496094 C17.999023,24.668945 17.32611,23.996094 16.499023,23.996094 C16.499023,23.996094 15.499023,23.996094 15.499023,23.996094 ZM38.00879,26.995972 C38.00879,26.995972 22.00879,26.995972 22.00879,26.995972 C22.00879,26.995972 22.00879,24.996094 22.00879,24.996094 C22.00879,24.996094 38.00879,24.996094 38.00879,24.996094 C38.00879,24.996094 38.00879,26.995972 38.00879,26.995972 ZM16.499023,39.001892 C16.499023,39.001892 15.499023,39.001892 15.499023,39.001892 C14.120117,39.001892 12.998962,37.88086 12.998962,36.501892 C12.998962,36.501892 12.998962,35.501892 12.998962,35.501892 C12.998962,34.123047 14.120117,33.001892 15.499023,33.001892 C15.499023,33.001892 16.499023,33.001892 16.499023,33.001892 C17.877869,33.001892 18.998962,34.123047 18.998962,35.501892 C18.998962,35.501892 18.998962,36.501892 18.998962,36.501892 C18.998962,37.88086 17.877869,39.001892 16.499023,39.001892 ZM15.499023,34.001892 C14.671753,34.001892 13.999023,34.674744 13.999023,35.501892 C13.999023,35.501892 13.999023,36.501892 13.999023,36.501892 C13.999023,37.32904 14.671753,38.001892 15.499023,38.001892 C15.499023,38.001892 16.499023,38.001892 16.499023,38.001892 C17.32611,38.001892 17.999023,37.32904 17.999023,36.501892 C17.999023,36.501892 17.999023,35.501892 17.999023,35.501892 C17.999023,34.674744 17.32611,34.001892 16.499023,34.001892 C16.499023,34.001892 15.499023,34.001892 15.499023,34.001892 ZM38.00879,37.001892 C38.00879,37.001892 22.00879,37.001892 22.00879,37.001892 C22.00879,37.001892 22.00879,35.001892 22.00879,35.001892 C22.00879,35.001892 38.00879,35.001892 38.00879,35.001892 C38.00879,35.001892 38.00879,37.001892 38.00879,37.001892 ZM25.5,49.0 C12.541931,49.0 1.999939,38.457947 1.999939,25.499939 C1.999939,12.541931 12.541931,1.999939 25.5,1.999939 C38.457947,1.999939 48.99994,12.541931 48.99994,25.499939 C48.99994,38.457947 38.457947,49.0 25.5,49.0 ZM25.5,2.999939 C13.093689,2.999939 2.999939,13.09375 2.999939,25.499939 C2.999939,37.90619 13.093689,48.0 25.5,48.0 C37.906128,48.0 48.0,37.90619 48.0,25.499939 C48.0,13.09375 37.906128,2.999939 25.5,2.999939 Z"/>
</svg>