<svg xmlns="http://www.w3.org/2000/svg"
 xmlns:xlink="http://www.w3.org/1999/xlink"
 width="50px" height="50px"  viewBox="0 0 50 50">
<path fill-rule="evenodd"  fill="#9e9e9e"
 d="M35.846863,10.311462 C35.846863,10.311462 15.348022,12.010803 15.348022,12.010803 C15.333984,12.010803 15.3220215,12.018799 15.307983,12.018799 C15.307983,12.018799 15.172058,12.018799 15.172058,12.018799 C14.526672,12.018799 14.003052,12.526001 14.003052,13.150635 C14.003052,13.150635 14.003052,38.87201 14.003052,38.87201 C14.003052,39.49771 14.526672,40.0029 15.172058,40.0029 C15.172058,40.0029 15.307983,40.0029 15.307983,40.0029 C15.3220215,40.0029 15.333984,40.010742 15.348022,40.010742 C15.348022,40.010742 15.438965,40.0029 15.438965,40.0029 C15.438965,40.0029 34.299866,40.0029 34.299866,40.0029 C34.945496,40.0029 35.469116,39.49771 35.469116,38.87201 C35.469116,38.87201 35.469116,38.344025 35.469116,38.344025 C35.469116,38.344025 35.846863,38.311554 35.846863,38.311554 C36.47931,38.311554 36.99402,37.8042 36.99402,37.17865 C36.99402,37.17865 36.99402,11.444366 36.99402,11.444366 C36.99402,10.818787 36.47931,10.311462 35.846863,10.311462 ZM33.9458,38.87201 C33.9458,38.93817 33.88098,38.99237 33.799927,38.99237 C33.799927,38.99237 15.172058,38.99237 15.172058,38.99237 C15.091187,38.99237 15.026245,38.93817 15.026245,38.87201 C15.026245,38.87201 15.026245,13.150635 15.026245,13.150635 C15.026245,13.084442 15.093201,13.029327 15.172058,13.029327 C15.172058,13.029327 33.799927,13.029327 33.799927,13.029327 C33.878845,13.029327 33.9458,13.084442 33.9458,13.150635 C33.9458,13.150635 33.9458,38.87201 33.9458,38.87201 ZM35.970764,37.17865 C35.970764,37.245758 35.914795,37.301025 35.846863,37.301025 C35.846863,37.301025 35.80182,37.301025 35.80182,37.301025 C35.80182,37.301025 35.756897,37.30487 35.756897,37.30487 C35.756897,37.30487 34.969055,37.3295 34.969055,37.3295 C34.969055,37.3295 34.969055,13.150635 34.969055,13.150635 C34.969055,12.526001 34.445496,12.018799 33.799927,12.018799 C33.799927,12.018799 27.897644,12.018799 27.897644,12.018799 C27.897644,12.018799 35.868835,11.324005 35.868835,11.324005 C35.926758,11.334778 35.970764,11.384186 35.970764,11.444366 C35.970764,11.444366 35.970764,37.17865 35.970764,37.17865 ZM29.874939,33.000977 C29.874939,33.000977 19.135742,33.000977 19.135742,33.000977 C18.510742,33.000977 18.004883,33.538147 18.004883,34.200195 C18.004883,34.200195 18.004883,34.799805 18.004883,34.799805 C18.004883,35.463837 18.510742,35.998993 19.135742,35.998993 C19.135742,35.998993 29.874939,35.998993 29.874939,35.998993 C30.499939,35.998993 31.00592,35.463837 31.00592,34.799805 C31.00592,34.799805 31.00592,34.200195 31.00592,34.200195 C31.00592,33.538147 30.499939,33.000977 29.874939,33.000977 ZM30.00586,34.799805 C30.00586,34.914032 29.936462,34.998993 29.874939,34.998993 C29.874939,34.998993 19.135742,34.998993 19.135742,34.998993 C19.074158,34.998993 19.004822,34.914032 19.004822,34.799805 C19.004822,34.799805 19.004822,34.200195 19.004822,34.200195 C19.004822,34.077026 19.081055,34.000977 19.135742,34.000977 C19.135742,34.000977 29.874939,34.000977 29.874939,34.000977 C29.929626,34.000977 30.00586,34.077026 30.00586,34.200195 C30.00586,34.200195 30.00586,34.799805 30.00586,34.799805 ZM24.499939,28.999878 C20.910156,28.999878 17.999939,26.089752 17.999939,22.49997 C17.999939,18.910065 20.910156,15.999939 24.499939,15.999939 C28.089844,15.999939 30.999939,18.910065 30.999939,22.49997 C30.999939,26.089752 28.089844,28.999878 24.499939,28.999878 ZM24.499939,16.999939 C21.462402,16.999939 18.999939,19.462402 18.999939,22.49997 C18.999939,25.537537 21.462402,27.999878 24.499939,27.999878 C27.537476,27.999878 30.0,25.537537 30.0,22.49997 C30.0,19.462402 27.537476,16.999939 24.499939,16.999939 ZM25.5,48.99991 C12.541931,48.99991 1.999939,38.457886 1.999939,25.5 C1.999939,12.541962 12.541931,1.999939 25.5,1.999939 C38.457947,1.999939 48.99994,12.541962 48.99994,25.5 C48.99994,38.457886 38.457947,48.99991 25.5,48.99991 ZM25.5,2.9999695 C13.093689,2.9999695 2.999939,13.0937805 2.999939,25.5 C2.999939,37.90622 13.093689,47.99991 25.5,47.99991 C37.906128,47.99991 48.0,37.90622 48.0,25.5 C48.0,13.0937805 37.906128,2.9999695 25.5,2.9999695 Z"/>
</svg>